<?xml version="1.0" encoding="UTF-8"?>
<svg id="Layer_1" data-name="Layer 1" xmlns="http://www.w3.org/2000/svg" viewBox="0 0 16 16">
  <defs>
    <style>
      .cls-1 {
        fill: #fff;
      }
    </style>
  </defs>
  <path d="M14,14c0,1.1-.9,2-2,2H4c-1.1,0-2-.9-2-2V2c0-1.1.9-2,2-2h8c1.1,0,2,.9,2,2v12Z"/>
  <path class="cls-1" d="M4.5,3.9c0-1.9,1.6-3.5,3.5-3.5,1.9,0,3.5,1.6,3.5,3.5,0,1.4-.8,2.6-2,3.2v7.3l-1.5,1.5-1.5-1.5,1-1-1-1,1-1-1-1,1-1-1-1v-1.3c-1.2-.6-2-1.8-2-3.2M7,2.9c0,.6.4,1,1,1s1-.4,1-1-.4-1-1-1-1,.4-1,1"/>
</svg>