<?xml version="1.0" encoding="UTF-8"?>
<svg id="Layer_1" data-name="Layer 1" xmlns="http://www.w3.org/2000/svg" viewBox="0 0 16 16">
  <defs>
    <style>
      .cls-1 {
        fill: #fff;
      }
    </style>
  </defs>
  <path d="M14,2c1.1,0,2,.9,2,2v8c0,1.1-.9,2-2,2H2c-1.1,0-2-.9-2-2V4c0-1.1.9-2,2-2h12Z"/>
  <path class="cls-1" d="M3.9,11.5c-1.9,0-3.5-1.6-3.5-3.5,0-1.9,1.6-3.5,3.5-3.5,1.4,0,2.6.8,3.2,2h7.3l1.5,1.5-1.5,1.5-1-1-1,1-1-1-1,1-1-1-1,1h-1.3c-.6,1.2-1.8,2-3.2,2M2.9,9c.6,0,1-.4,1-1s-.4-1-1-1-1,.4-1,1,.4,1,1,1"/>
</svg>