<?xml version="1.0" encoding="UTF-8"?>
<svg id="Layer_1" xmlns="http://www.w3.org/2000/svg" version="1.1" viewBox="0 0 182 31">
  <!-- Generator: Adobe Illustrator 29.8.4, SVG Export Plug-In . SVG Version: 2.1.1 Build 6)  -->
  <defs>
    <style>
      .st0 {
        fill: #eaeaea;
      }

      .st1 {
        fill: #de3638;
      }

      .st2 {
        fill: #fff;
      }

      .st3 {
        fill: #f3ea31;
      }
    </style>
  </defs>
  <path d="M170.6,5h8.1c1,0,1.8-.8,1.8-1.8v-.6c0-1-.8-1.8-1.7-1.8h-24.5c0,0-.1,0-.2,0h-11.6l-.5.5v.4c0,.4.1.5,2.6,2.1,0,0,.1,0,.1,0h0v.3c0,.6,0,1.4,0,2.3v.2c0,1.7,0,4.4,0,4.7,0,.1-.2.4-1.4.8-1.5.4-3.1.5-4.5.2-.9-.2-2-.6-2-1.5v-6.6c0-.7,0-1.5-.5-2.3-.8-1.2-1.5-1.3-2.5-1.3h-9.5l-.2.2c-.7.7.6,2.4,1.2,3,.2.2.4.3.6.3,0,.1,0,.3,0,.4-2.8-2.4-7.7-4.1-13.3-4.1-8.1,0-14.8,3.4-15.7,7.8l-6.4,1.5c0-1.3-.2-2.9-.4-5h8.1c1,0,1.8-.8,1.8-1.8v-.6c0-1-.8-1.8-1.7-1.8h-24.5c-.4,0-.9.2-1.2.5-.7-.3-1.5-.5-2.3-.5h-17.9c-1,0-1.7.7-1.7,1.7v.6c0,.5.1.9.5,1.3.3.3.8.5,1.3.5h10c-1.8.6-3.6,1.2-4.3,1.4-.3,0-.6.2-1,.3-3,1-7.4,2.5-7.7,5.9h-8.3V2.4c0-1-.8-1.8-1.8-1.8h-7.1c-.6,0-1.1.3-1.4.7-.3-.4-.8-.6-1.3-.6,0,0-23.4,0-23.6,0-2.4,0-4.3,1.4-4.3,3.2v12.3c0,1,.8,1.8,1.8,1.8h9.7c1,0,1.8-.8,1.8-1.8v-3h11.6c1,0,1.8-.8,1.8-1.8v-1.4c0-1-.8-1.8-1.8-1.8h-11.6v-2.9h14.7c.4,0,.7-.1,1-.3v11c0,1,.8,1.8,1.8,1.8h18.3c.5,0,1-.2,1.3-.5.8.4,1.8.6,3.1.6h18.6c1.8,0,3.3-1.5,3.3-3.3h0c0-.1,2.7-.4,2.7-.4v1.2c0,.9.7,2.4,2,2.5h7.3c1.3,0,2.2-1.4,2.2-2.6s0-.5-.2-2.2l4.2-.4-5,7.5,10.2-5.4c2.9,2.1,7.4,3.4,12.4,3.4s11.4-2,14-4.8c.2.5.5,1,.9,1.4,1.7,1.9,4.4,2.7,6.3,3,1.6.2,3.4.4,5.4.4s1.4,0,2.2,0c1.9,0,4.4-.3,6.6-1.2,2.1-.9,4.3-3,4.4-5.4,0-1.3,0-4.1,0-6.1,0-.6,0-1.2,0-1.6,0,0,.1,0,.1,0,0,0,.2,0,.3,0,.3.6.9,1.1,1.6,1.1h6l-.4,10.6c0,.9.7,2.4,2,2.5h7.3c1.3,0,2.2-1.4,2.2-2.6s-.1-1.8-.8-10.1v-.4s0,0,0,0ZM104.2,8.6c.8-1.9,4.3-3.4,8.3-3.4s2,0,2.9.3c0,0-11.2,3.1-11.2,3.1ZM117.2,6c2.3.8,3.8,2,3.8,3.5,0,2.3-3.9,4.2-8.5,4.2s-5.2-.7-6.7-1.7c0,0,11.4-6,11.4-6ZM56.9,12c0-.5.3-.9.8-1.1l3.6-1.2c2-.6,4.1-1.3,5.3-1.7,0,0,0,0,.1,0,.2,0,.3,0,.5.2,0,0,.1.1.1.1v3.8c0,.2,0,.4-.3.6-.3.3-.7.5-1.1.5h-7.5c-.7,0-1.5-.6-1.5-1.3h0ZM76.4,5h3.3l-.3,7.6-2.8.7v-7c0-.4,0-.8-.3-1.3Z"/>
  <polygon points="7.4 26.4 5.8 22.9 1.5 22.9 1.5 30.3 4.4 30.3 4.4 26.5 6.3 30.3 8.6 30.3 10.5 26.5 10.4 30.3 13.3 30.3 13.3 22.9 9 22.9 7.4 26.4"/>
  <path d="M29,22.9c-.5,0-1.5-.1-2.9-.1s-2.4,0-2.9.1c-1.2.2-1.6.9-1.8,1.4-.1.5-.2,1.2-.2,2.2s0,1.8.2,2.3c.2.6.6,1.3,1.8,1.4.5,0,1.5.1,2.9.1s2.3,0,2.9-.1c1.2-.2,1.6-.9,1.8-1.4.1-.5.2-1.2.2-2.3s0-1.8-.2-2.2c-.2-.6-.6-1.3-1.8-1.4h0ZM28,26.8c0,.5,0,.6,0,.7,0,0,0,0,0,.1,0,0,0,0-.3,0-.2,0-.6,0-1.5,0s-1.4,0-1.6,0c-.2,0-.3-.1-.3-.2,0,0,0-.3,0-.7,0-.8,0-1.1,0-1.1,0,0,0,0,.1-.1,0,0,.4,0,1.7,0s1.5,0,1.6,0c.1,0,.2,0,.2,0,0,0,0,0,0,.3,0,.1,0,.4,0,.9h0Z"/>
  <polygon points="38.4 25.6 41.3 25.6 41.3 30.3 44.3 30.3 44.3 25.6 47.2 25.6 47.2 22.9 38.4 22.9 38.4 25.6"/>
  <path d="M62.4,22.9c-.5,0-1.5-.1-2.9-.1s-2.4,0-2.9.1c-1.2.2-1.6.9-1.8,1.4-.1.5-.2,1.2-.2,2.2s0,1.8.2,2.3c.2.6.6,1.3,1.8,1.4.5,0,1.5.1,2.9.1s2.3,0,2.9-.1c1.2-.2,1.6-.9,1.8-1.4.1-.5.2-1.2.2-2.3s0-1.8-.2-2.2c-.2-.6-.6-1.3-1.8-1.4h0ZM57.6,27.5c0,0,0-.3,0-.7,0-.8,0-1.1,0-1.1,0,0,0,0,.1-.1,0,0,.4,0,1.7,0s1.5,0,1.6,0c.1,0,.2,0,.2,0,0,0,0,0,0,.3s0,.5,0,.9,0,.6,0,.7c0,0,0,0,0,.1,0,0,0,0-.3,0-.2,0-.6,0-1.5,0s-1.4,0-1.6,0c-.2,0-.3-.1-.3-.2h0Z"/>
  <path d="M81.2,25.5c0-.6,0-1.1-.2-1.4-.1-.4-.4-.7-.7-.9-.3-.2-.6-.3-.8-.3-.2,0-.5,0-2,0h-5.2v7.4h2.9v-1.6h2.9s0,0,0,.1c0,.1,0,.4,0,.7v.8h2.9v-1.1c0-.8,0-1,0-1.2,0-.3-.2-.5-.3-.7,0,0,0,0,0,0,.2-.2.3-.4.4-.7s0-.6,0-1.1h0ZM75.2,25.5h2.2c.4,0,.7,0,.8,0,0,0,0,0,0,.3s0,.3,0,.3c0,0-.4,0-.8,0h-2.2s0-.6,0-.6Z"/>
  <path d="M96.9,25.9h.4v-.8c0-.7-.1-1.2-.4-1.6-.3-.3-.8-.5-1.5-.6-.4,0-1.1,0-2.1,0s-2.2,0-2.7.1c-.6,0-1,.3-1.3.6-.4.4-.5,1-.5,1.9s.2,1.3.5,1.7c0,0,0,0,0,.1h-.6v.8c0,.5,0,.9.2,1.2.1.3.4.6.7.8.3.2.7.3,1.2.3.5,0,1.2,0,2.2,0s2,0,2.4,0c.5,0,.8-.1,1.1-.3.3-.1.6-.4.7-.7.2-.4.3-.9.3-1.6s0-.9-.2-1.2c0-.2-.2-.5-.4-.6h0ZM94.4,25.4c-.3,0-.6,0-.9,0-.4,0-.7,0-.9,0h.4c.7,0,1.1,0,1.3,0,0,0,.1,0,.2,0h0s0,0,0,0ZM92.8,27.8c.8,0,1.3,0,1.5,0h0c.1,0,.2,0,.3,0h0s0,0-.1,0c-.2,0-.7,0-1.5,0-.8,0-1.2,0-1.4,0h0s0,0,0-.1c.3,0,.7,0,1.2,0h0Z"/>
  <path d="M111.9,23c-.3,0-.8,0-1.7,0h-4.9v7.4h2.9v-1.6h1.9c.8,0,1.3,0,1.6,0,.4,0,.8-.1,1.1-.3.3-.2.6-.4.7-.7.2-.4.3-1,.3-1.9s-.1-1.6-.4-2c-.3-.4-.8-.7-1.6-.8h0ZM111,25.8c0,.2,0,.3,0,.3,0,0-.3,0-.8,0h-1.9v-.6h1.9c.6,0,.8,0,.8,0,0,0,0,.1,0,.3Z"/>
  <path d="M129.3,22.9c-.5,0-1.5-.1-2.9-.1s-2.4,0-2.9.1c-1.2.2-1.6.9-1.8,1.4-.1.5-.2,1.2-.2,2.2s0,1.8.2,2.3c.2.6.6,1.3,1.8,1.4.6,0,1.5.1,2.9.1s2.3,0,2.9-.1c1.2-.2,1.6-.9,1.8-1.4.1-.5.2-1.2.2-2.3s0-1.8-.2-2.2c-.1-.6-.6-1.3-1.8-1.4ZM124.5,27.5c0,0,0-.3,0-.7,0-.8,0-1.1,0-1.1,0,0,0,0,.1-.1,0,0,.4,0,1.7,0s1.5,0,1.6,0c.1,0,.2,0,.2,0,0,0,0,0,0,.3,0,.1,0,.4,0,.9s0,.6,0,.7c0,0,0,0,0,.1,0,0,0,0-.3,0-.2,0-.6,0-1.5,0s-1.4,0-1.6,0c-.2,0-.3-.1-.3-.2h0Z"/>
  <path d="M148,25.5c0-.6,0-1.1-.2-1.4-.1-.4-.4-.7-.7-.9-.3-.2-.6-.3-.9-.3-.1,0-.5,0-2,0h-5.2v7.4h2.9v-1.6h3s0,0,0,.1c0,.1,0,.4,0,.7v.8h2.9v-1.1c0-.8,0-1,0-1.2,0-.3-.1-.5-.3-.7,0,0,0,0,0,0,.2-.2.3-.4.4-.7,0-.3.1-.6.1-1.1h0ZM142,25.5h2.2c.4,0,.7,0,.8,0,0,0,0,0,0,.3s0,.3,0,.3c0,0-.4,0-.8,0h-2.2v-.6h0Z"/>
  <polygon points="155.5 25.6 158.4 25.6 158.4 30.3 161.4 30.3 161.4 25.6 164.2 25.6 164.2 22.9 155.5 22.9 155.5 25.6"/>
  <path d="M180.3,26.6c-.1-.2-.2-.5-.4-.6h.4v-.8c0-.7-.1-1.2-.4-1.6-.3-.3-.8-.5-1.5-.6-.4,0-1.1,0-2.1,0s-2.2,0-2.7.1c-.6,0-1,.3-1.3.6-.4.4-.5,1-.5,1.9s.2,1.3.5,1.7c0,0,0,0,.1.1h-.6v.8c0,.5,0,.9.2,1.2.1.3.4.6.7.8.3.2.7.3,1.2.3.5,0,1.2,0,2.2,0s2,0,2.4,0c.5,0,.8-.1,1.1-.3.3-.1.6-.4.7-.7.2-.4.3-.9.3-1.6s0-.9-.2-1.2h0ZM177.4,25.4c-.3,0-.6,0-.9,0-.4,0-.7,0-.9,0h.4c.7,0,1.1,0,1.3,0,0,0,.1,0,.2,0h0s0,0,0,0ZM175.8,27.8c.8,0,1.3,0,1.5,0h0c.1,0,.2,0,.3,0h0s0,0-.1,0c-.2,0-.6,0-1.5,0-.8,0-1.2,0-1.4,0h0s0,0,0-.1c.3,0,.7,0,1.2,0h0Z"/>
  <path class="st2" d="M112.5,1.1c-8.4,0-15.3,3.7-15.3,8.4s6.9,8.4,15.3,8.4,15.3-3.8,15.3-8.4-6.9-8.4-15.3-8.4M112.5,14.1c-4.9,0-9-2.1-9-4.7s4-4.7,9-4.7,9,2.1,9,4.7-4,4.7-9,4.7"/>
  <path class="st1" d="M112.5,1.7c-8.1,0-14.7,3.5-14.7,7.8s6.6,7.8,14.7,7.8,14.7-3.5,14.7-7.8-6.6-7.8-14.7-7.8M112.5,14.7c-5.3,0-9.6-2.4-9.6-5.3s4.3-5.3,9.6-5.3,9.6,2.4,9.6,5.3-4.3,5.3-9.6,5.3"/>
  <path class="st1" d="M70.2,1.2h-17.9c-.7,0-1.2.5-1.2,1.2v.6c0,.3,0,.7.3.9s.6.4.9.4h13.1c-2.3.8-6.2,2.1-7.2,2.4-.3.1-.7.2-1,.3-3,1-7.5,2.5-7.4,5.9.1,3,1.8,4.5,5,4.5h0s14.6,0,18.6,0c1.5,0,2.8-1.2,2.8-2.8V6.2c0-2.2-2.9-5-5.9-5M65.9,13.8h-7.5c-.9,0-2-.8-2-1.8s.5-1.3,1.1-1.5c.9-.3,2.1-.7,3.4-1.1,2-.7,4.2-1.4,5.5-1.8,0,0,.2,0,.3,0,.3,0,.6,0,.8.2.1,0,.3.3.3.5v3.8c0,.4-.2.7-.4,1-.4.4-.9.6-1.5.6"/>
  <path class="st2" d="M70.2,1.8h-17.9c-.3,0-.6.3-.7.6v.6c0,.2,0,.4.2.5.1.1.3.2.5.2h15v.6c0,0-7.5,2.5-8.9,3-.3.1-.7.2-1,.4-2.8.9-7.1,2.3-7,5.3,0,2.6,1.5,3.9,4.4,3.9h0s14.6,0,18.6,0c1.2,0,2.2-1,2.2-2.2V6.2c0-2.1-3.1-4.4-5.3-4.4M67.8,13.6c-.5.5-1.2.8-1.9.8h-7.5c-1.2,0-2.6-1-2.6-2.4s.6-1.8,1.5-2.1c.9-.3,2.1-.7,3.4-1.1,2-.7,4.2-1.4,5.5-1.8.5-.2,1.1,0,1.6.3.4.3.6.6.6,1v3.8c0,.5-.2,1-.6,1.4"/>
  <path class="st1" d="M98.2,1.2h-24.5c-.7,0-1.2.6-1.2,1.3v.6c0,.7.6,1.3,1.3,1.3h6.5l-.4,11.1c0,.8.6,1.9,1.5,2h7.3c1,0,1.7-1.1,1.7-2.1s-.6-8.5-.8-10.9h8.7c.7,0,1.3-.6,1.3-1.3v-.6c0-.7-.6-1.3-1.2-1.3"/>
  <path class="st2" d="M98.2,1.8h-24.5c-.3,0-.7.3-.7.7v.6c0,.4.3.7.7.7h7.1l-.4,11.6c0,.5.4,1.4.9,1.4h7.3c.7,0,1.1-.9,1.1-1.5s-.6-7.4-.8-11.2v-.3s9.3,0,9.3,0c.4,0,.7-.3.7-.7v-.6c0-.4-.3-.7-.7-.7"/>
  <path class="st2" d="M178.7,1.2h-24.5c-.7,0-1.2.6-1.2,1.3v.6c0,.7.6,1.3,1.3,1.3h6.5l-.4,11.1c0,.8.6,1.9,1.5,2h7.3c1,0,1.7-1.1,1.7-2.1s-.6-8.5-.8-10.9h8.7c.7,0,1.3-.6,1.3-1.3v-.6c0-.7-.6-1.3-1.2-1.3"/>
  <path class="st1" d="M178.7,1.8h-24.5c-.4,0-.6.3-.6.7v.6c0,.4.3.7.7.7h7.1l-.4,11.6c0,.5.4,1.4.9,1.4h7.3c.7,0,1.1-.9,1.1-1.5s-.6-7.4-.8-11.2v-.3s9.3,0,9.3,0c.4,0,.7-.3.7-.7v-.6c0-.4-.3-.7-.7-.7"/>
  <path class="st2" d="M142.6,1.2l-.2.2h0c0,.3,0,.4,2.4,1.8.3.2.4.4.4.6v.2c0,.6,0,1.4,0,2.2,0,2,0,4.7,0,5,0,.7-1.1,1-1.8,1.2-1.6.4-3.3.5-4.8.2-1.1-.2-2.4-.8-2.4-2v-6.6c0-.7,0-1.3-.4-2-.6-1-1.2-1-2.1-1h-9.4c-.4.5,1.2,2.4,1.2,2.4.2.2.4.2.5.2,0,0,0,0,.1,0,0,.4.1,1.8.1,2.4,0,.3,0,.5,0,.6,0,.5,0,.9,0,1.5,0,2.2,0,4.7,1.4,6.3,1.6,1.8,4.2,2.5,6,2.8,1.6.2,3.4.4,5.3.4s1.4,0,2.2,0c1.9,0,4.2-.3,6.4-1.2,1.9-.8,4-2.8,4.1-5,0-1.3,0-4.1,0-6.1,0-.8,0-1.6,0-2,.2,0,.4,0,.6-.1.4,0,.7-.1,1.1-.3.4-.2.6-.4.8-.8,0,0,.1-.4.2-.6,0,0,0,0,0,0l1.4-.5h-13.1Z"/>
  <path class="st1" d="M143.7,1.8c.6.4,1.2.8,1.4.9.6.4.6.5.6,1.1v.2c0,.6,0,1.4,0,2.2,0,2.8,0,4.7,0,5.1-.1,1.1-1.6,1.6-2.2,1.7-1,.3-2,.4-2.9.4s-1.4,0-2.1-.2c-1.8-.4-2.9-1.3-2.9-2.6v-6.6c0-.7,0-1.1-.3-1.7-.5-.7-.8-.8-1.6-.8h-8.8c.3.5.9,1.3,1,1.5,0,0,.1,0,.2,0,.1,0,.2,0,.4.1.2.1.3.4.4,2.9,0,.3,0,.5,0,.6,0,.5,0,1,0,1.5,0,2.1,0,4.5,1.3,5.9,1.5,1.7,3.9,2.4,5.7,2.6,1.6.2,3.3.4,5.2.4s1.4,0,2.1,0c1.8,0,4.1-.3,6.2-1.1,1.8-.8,3.6-2.5,3.7-4.4,0-1.2,0-4,0-6.1,0-1.5,0-2.3,0-2.4h0c0,0,0,0,0,0,.3,0,.6-.2.9-.2.3,0,.6,0,.9-.2.2-.1.4-.2.5-.4,0,0,0-.2.1-.4h-10,0Z"/>
  <path class="st1" d="M29.4,1.3s-23.4,0-23.6,0c-2.1,0-3.8,1.2-3.8,2.7v12.3c0,.7.6,1.3,1.3,1.3h9.7c.7,0,1.3-.6,1.3-1.3v-3.5h12.1c.7,0,1.3-.6,1.3-1.3v-1.4c0-.7-.6-1.3-1.3-1.3h-12.1v-3.9h15.2c.7,0,1.3-.6,1.3-1.3v-1.1c0-.7-.6-1.3-1.3-1.3"/>
  <path class="st2" d="M29.4,1.9s-23.4,0-23.6,0c-1.8,0-3.2,1-3.2,2.1v12.3c0,.4.3.7.7.7h9.7c.4,0,.7-.3.7-.7v-4.1h12.7c.4,0,.7-.3.7-.7v-1.4c0-.4-.3-.7-.7-.7h-12.7v-5.1h15.8c.4,0,.7-.3.7-.7v-1.1c0-.4-.3-.7-.7-.7"/>
  <path class="st1" d="M50.5,13h-10V2.4c0-.7-.6-1.3-1.3-1.3h-7.1c-.7,0-1.3.6-1.3,1.3v13.8c0,.7.6,1.3,1.3,1.3h18.3c.7,0,1.3-.6,1.3-1.3v-1.9c0-.7-.6-1.3-1.3-1.3"/>
  <path class="st2" d="M50.5,13.6h-10.6V2.4c0-.4-.3-.7-.7-.7h-7.1c-.4,0-.7.3-.7.7v13.8c0,.4.3.7.7.7h18.3c.4,0,.7-.3.7-.7v-1.9c0-.4-.3-.7-.7-.7"/>
  <polygon points="116.5 5.8 99.5 10.5 101.7 7.8 74 14.4 95.9 12.2 91.4 19 116.5 5.8"/>
  <polygon class="st3" points="112.3 7.4 92.8 17.7 96.5 12.1 96.8 11.6 96.2 11.6 81.1 13.2 100.4 8.6 98.7 10.7 98.2 11.3 99 11.1 112.3 7.4"/>
  <polygon class="st0" points="2 23.4 5.5 23.4 7.4 27.6 9.3 23.4 12.8 23.4 12.8 29.8 10.9 29.8 11 25 10.6 25 8.2 29.8 6.6 29.8 4.2 25 3.9 25 3.9 29.8 2 29.8 2 23.4"/>
  <path class="st0" d="M26,23.3c1.4,0,2.3,0,2.9.1.8.1,1.2.5,1.4,1.1.1.4.2,1.1.2,2.1s0,1.7-.2,2.1c-.2.6-.6,1-1.4,1.1-.5,0-1.5.1-2.8.1s-2.4,0-2.9-.1c-.8-.1-1.2-.5-1.4-1.1-.1-.4-.2-1.1-.2-2.2s0-1.7.2-2.1c.2-.6.6-1,1.4-1.1.5,0,1.5-.1,2.9-.1M26,25c-1,0-1.6,0-1.9,0-.2,0-.4.2-.5.4,0,.2-.1.6-.1,1.3s0,.7,0,.9c0,.3.3.5.7.6.3,0,.9,0,1.7,0s1.3,0,1.6,0,.5,0,.6-.2c.1,0,.2-.2.2-.4,0-.2,0-.5,0-.8s0-.8,0-1c0-.2,0-.4-.2-.5-.1-.1-.3-.2-.5-.3-.2,0-.8,0-1.7,0"/>
  <polygon class="st0" points="38.9 23.4 46.7 23.4 46.7 25.1 43.8 25.1 43.8 29.8 41.8 29.8 41.8 25.1 38.9 25.1 38.9 23.4"/>
  <path class="st0" d="M59.5,23.3c1.4,0,2.3,0,2.8.1.8.1,1.2.5,1.4,1.1.1.4.2,1.1.2,2.1s0,1.7-.2,2.1c-.2.6-.6,1-1.4,1.1-.5,0-1.5.1-2.8.1s-2.3,0-2.9-.1c-.8-.1-1.2-.5-1.4-1.1-.1-.4-.2-1.1-.2-2.2s0-1.7.2-2.1c.2-.6.6-1,1.4-1.1.5,0,1.5-.1,2.8-.1M59.5,25c-1,0-1.7,0-1.9,0-.2,0-.4.2-.5.4,0,.2-.1.6-.1,1.3s0,.7,0,.9c0,.3.3.5.7.6.3,0,.8,0,1.7,0s1.3,0,1.6,0c.3,0,.5,0,.6-.2.1,0,.2-.2.2-.4s0-.5,0-.8,0-.8,0-1c0-.2,0-.4-.2-.5,0-.1-.3-.2-.5-.3-.2,0-.8,0-1.7,0"/>
  <path class="st0" d="M72.7,29.8v-6.4h4.7c1.1,0,1.8,0,2,0,.2,0,.4,0,.6.2.2.1.4.4.5.6s.1.7.1,1.2,0,.8,0,1c0,.2-.2.4-.3.5-.2.1-.4.2-.8.3.4,0,.7.1.9.4,0,.1.2.3.2.4s0,.5,0,1.1v.6h-1.9v-.3c0-.4,0-.6,0-.8s0-.3-.2-.4c0,0-.2-.1-.3-.1-.1,0-.4,0-.8,0h-2.7v1.6h-1.9,0ZM74.7,26.6h2.7c.5,0,.8,0,.8,0,0,0,.2,0,.2,0,0,0,.1-.1.2-.2,0-.1,0-.3,0-.5s0-.4,0-.5c0-.1-.1-.2-.2-.2,0,0-.2,0-.2,0,0,0-.4,0-.8,0h-2.7v1.6h0Z"/>
  <path class="st0" d="M89.2,27.7h1.9c0,.3,0,.5.2.6,0,0,.2,0,.4.1s.6,0,1.4,0c.8,0,1.3,0,1.5,0,.2,0,.3,0,.4,0,.1,0,.2-.2.2-.5s0-.3-.2-.4-.3-.1-.6-.1c-.2,0-.8,0-1.5,0-.8,0-1.3,0-1.6,0-.5,0-.8,0-1.1-.1s-.4-.2-.6-.4c-.2-.3-.4-.7-.4-1.4s.1-1.2.4-1.5c.2-.2.5-.4,1-.4.4,0,1.3-.1,2.7-.1s1.6,0,2,0c.6,0,1,.2,1.2.5.2.2.3.7.3,1.2v.3h-1.9c0-.2,0-.3,0-.4,0,0,0-.1-.1-.2,0,0-.2,0-.4-.1-.2,0-.7,0-1.3,0s-1.3,0-1.5,0-.3.2-.3.4,0,.4.3.4c.2,0,.8,0,2.1.1,1,0,1.7,0,2.1.1s.6.1.8.2c.2.1.4.3.5.6s.2.6.2,1.1,0,1-.2,1.3c-.1.2-.3.4-.5.5-.2.1-.5.2-.9.2-.4,0-1.2,0-2.3,0s-1.7,0-2.1,0c-.5,0-.8-.1-1-.3-.2-.1-.4-.3-.5-.5,0-.2-.1-.6-.1-1v-.3h0Z"/>
  <path class="st0" d="M105.7,29.8v-6.4h4.4c.9,0,1.4,0,1.7,0,.6,0,1.1.3,1.3.6s.3.9.3,1.7,0,1.3-.3,1.7c-.1.2-.3.4-.5.5-.2.1-.5.2-.9.2-.3,0-.8,0-1.6,0h-2.4v1.6h-2ZM107.7,26.7h2.4c.4,0,.7,0,.8,0,0,0,.2,0,.3,0,0,0,.2-.1.2-.2s0-.3,0-.5,0-.4,0-.5-.1-.2-.2-.2c0,0-.4,0-1,0h-2.4v1.6h0Z"/>
  <path class="st0" d="M126.4,23.3c1.4,0,2.3,0,2.8.1.8.1,1.2.5,1.4,1.1.1.4.2,1.1.2,2.1s0,1.7-.2,2.1c-.2.6-.6,1-1.4,1.1-.5,0-1.5.1-2.8.1s-2.3,0-2.9-.1c-.8-.1-1.2-.5-1.4-1.1-.1-.4-.2-1.1-.2-2.2s0-1.7.2-2.1c.2-.6.6-1,1.4-1.1.5,0,1.5-.1,2.8-.1M126.4,25c-1,0-1.7,0-1.9,0-.2,0-.4.2-.5.4,0,.2-.1.6-.1,1.3s0,.7,0,.9c0,.3.3.5.7.6.3,0,.8,0,1.7,0s1.3,0,1.6,0c.3,0,.4,0,.6-.2.1,0,.2-.2.2-.4s0-.5,0-.8,0-.8,0-1c0-.2,0-.4-.2-.5,0-.1-.3-.2-.5-.3-.2,0-.8,0-1.7,0"/>
  <path class="st0" d="M139.6,29.8v-6.4h4.7c1.1,0,1.8,0,2,0,.2,0,.4,0,.6.2.2.1.4.4.5.6s.1.7.1,1.2,0,.8,0,1c0,.2-.2.4-.3.5-.2.1-.4.2-.8.3.4,0,.7.1.9.4.1.1.2.3.2.4s0,.5,0,1.1v.6h-1.9v-.3c0-.4,0-.6,0-.8s0-.3-.1-.4c0,0-.2-.1-.3-.1-.1,0-.4,0-.8,0h-2.7v1.6h-1.9,0ZM141.5,26.6h2.7c.5,0,.8,0,.9,0,0,0,.2,0,.2,0,0,0,.1-.1.2-.2s0-.3,0-.5,0-.4,0-.5c0-.1-.1-.2-.2-.2,0,0-.1,0-.2,0-.1,0-.4,0-.8,0h-2.7v1.6h0Z"/>
  <polygon class="st0" points="156 23.4 163.7 23.4 163.7 25.1 160.9 25.1 160.9 29.8 158.9 29.8 158.9 25.1 156 25.1 156 23.4"/>
  <path class="st0" d="M172.2,27.7h1.9c0,.3,0,.5.2.6,0,0,.2,0,.4.1s.6,0,1.4,0c.8,0,1.3,0,1.5,0,.2,0,.3,0,.4,0,.1,0,.2-.2.2-.5s0-.3-.1-.4c-.1,0-.3-.1-.6-.1-.2,0-.8,0-1.5,0-.8,0-1.3,0-1.6,0-.5,0-.8,0-1.1-.1s-.4-.2-.6-.4c-.2-.3-.4-.7-.4-1.4s.1-1.2.4-1.5c.2-.2.5-.4,1-.4.4,0,1.3-.1,2.6-.1s1.6,0,2,0c.6,0,1,.2,1.2.5.2.2.3.7.3,1.2v.3h-1.9c0-.2,0-.3,0-.4,0,0,0-.1-.1-.2,0,0-.2,0-.4-.1-.2,0-.7,0-1.4,0s-1.3,0-1.5,0-.3.2-.3.4,0,.4.3.4c.1,0,.8,0,2.1.1,1,0,1.7,0,2.1.1s.6.1.8.2c.2.1.4.3.5.6s.1.6.1,1.1,0,1-.2,1.3c-.1.2-.3.4-.5.5-.2.1-.5.2-.9.2-.4,0-1.2,0-2.4,0s-1.7,0-2.1,0c-.5,0-.8-.1-1-.3-.2-.1-.4-.3-.5-.5,0-.2-.1-.6-.1-1v-.3h0Z"/>
</svg>